<?xml version="1.0" encoding="UTF-8" standalone="no"?>
<!-- Created with Inkscape (http://www.inkscape.org/) -->

<svg
   width="256"
   height="256"
   viewBox="0 0 67.733332 67.733333"
   version="1.1"
   id="svg10470"
   inkscape:version="1.2.2 (732a01da63, 2022-12-09)"
   sodipodi:docname="dem_logo.svg"
   xmlns:inkscape="http://www.inkscape.org/namespaces/inkscape"
   xmlns:sodipodi="http://sodipodi.sourceforge.net/DTD/sodipodi-0.dtd"
   xmlns="http://www.w3.org/2000/svg"
   xmlns:svg="http://www.w3.org/2000/svg">
  <sodipodi:namedview
     id="namedview10472"
     pagecolor="#ffffff"
     bordercolor="#000000"
     borderopacity="0.25"
     inkscape:showpageshadow="2"
     inkscape:pageopacity="0.0"
     inkscape:pagecheckerboard="true"
     inkscape:deskcolor="#d1d1d1"
     inkscape:document-units="mm"
     showgrid="false"
     inkscape:zoom="2.587745"
     inkscape:cx="157.85945"
     inkscape:cy="338.7119"
     inkscape:window-width="3840"
     inkscape:window-height="2131"
     inkscape:window-x="-9"
     inkscape:window-y="-9"
     inkscape:window-maximized="1"
     inkscape:current-layer="layer1" />
  <defs
     id="defs10467" />
  <g
     inkscape:label="Слой 1"
     inkscape:groupmode="layer"
     id="layer1">
    <path
       class="st0"
       d="m 26.861312,2.7723761 c 5.550487,-1.4013608 10.633855,-0.6045093 12.502336,-0.2747773 3.077498,0.5770309 4.836068,1.1265845 7.968521,2.4729896 1.099108,0.4671205 5.577967,3.2148864 6.594639,4.0392158 1.428839,1.1540608 4.836069,4.7536348 5.632922,5.9351748 0.439641,0.659464 0.879284,1.263972 0.961717,1.346405 0.631987,0.631987 2.885155,5.330667 3.682007,7.693747 3.654529,10.936108 0.659465,23.658266 -7.528879,31.874087 -2.308123,2.308123 -2.885154,2.802721 -4.671203,3.98426 -4.149126,2.747767 -8.078433,4.341471 -12.502336,5.083368 -3.077498,0.577031 -8.380687,0.467119 -11.128452,0 C 24.937876,64.322336 22.739662,63.552963 18.89279,61.574571 17.71125,60.970063 16.557188,60.283122 16.337367,60.090777 16.145022,59.870956 15.705381,59.568702 15.403126,59.403836 13.974288,58.634462 10.457147,55.199754 8.5337105,52.644331 7.2697381,50.995671 5.0165697,46.928978 4.1922399,44.730765 2.4336695,40.19695 1.829161,33.712223 2.7084461,28.601378 3.3679101,24.699549 3.7525973,23.490532 5.7035112,19.50627 7.5445146,15.714353 10.622013,11.867481 14.111677,9.0098042 c 1.154061,-0.961718 3.297319,-2.5828993 5.907697,-3.8468715 1.75857,-0.8518082 2.445511,-1.2914504 6.841938,-2.3905566 z m 9.452316,44.8435429 -22.22943,0.08242 c 0,0.109912 0.412165,0.824331 0.906764,1.428838 3.434708,4.259039 7.831132,7.089238 13.27171,8.627988 2.445512,0.659463 8.050956,0.769373 10.633855,0.164866 2.418034,-0.549554 3.846873,-1.071629 6.154997,-2.253169 2.170735,-1.071629 5.770309,-3.791918 5.632921,-4.259037 -0.192344,-0.659462 -8.078433,-12.30999 -8.270776,-12.20008 z m 18.90463,-1.923437 c 0.05497,0 0.467121,-0.796851 0.906764,-1.786048 1.483793,-3.242364 2.005868,-5.880218 2.005868,-10.029345 0,-4.286515 -0.549552,-7.006804 -2.198212,-10.386557 L 54.943482,21.457185 47.414602,33.7397 Z M 12.820227,22.061693 c -0.08242,0 -0.494599,0.796853 -0.934241,1.758572 -2.3081232,5.083366 -2.8302003,11.485662 -1.346406,16.321729 0.329731,0.989197 0.109911,0.906763 1.373884,0.879285 h 1.071629 z m 24.839806,11.375752 -3.929305,-6.677072 h -6.649595 l -6.677072,-0.02748 v 2.060825 2.060825 l 12.007738,0.02748 0.02748,5.687877 -12.035216,0.05497 v 2.198212 2.198213 h 6.264907 6.292384 z M 20.129284,19.863481 h 16.733897 l 5.660397,7.693745 c 0.05497,0 0.467122,-0.522075 0.906763,-1.154062 4.039217,-5.990131 5.605443,-8.325732 6.209952,-9.369883 l 0.71442,-1.236495 -0.989197,-0.851807 C 46.288018,12.22469 41.699249,10.246299 36.808226,9.5318793 34.390191,9.2296258 33.868115,9.3120588 31.257738,9.5043993 27.82303,10.026475 24.745532,11.043148 22.135153,12.554419 l -2.005869,1.236495 z"
       id="path4"
       style="fill:#ffa500;stroke-width:0.274776" />
  </g>
</svg>
