<?xml version="1.0" encoding="utf-8"?>
<!-- Generator: Adobe Illustrator 21.0.0, SVG Export Plug-In . SVG Version: 6.00 Build 0)  -->
<svg version="1.1" id="Layer_1" xmlns="http://www.w3.org/2000/svg" xmlns:xlink="http://www.w3.org/1999/xlink" x="0px" y="0px"
	 viewBox="0 0 14 16" style="enable-background:new 0 0 14 16;" xml:space="preserve">
<style type="text/css">
	.st0{fill:#FFFFFF;}
</style>
<path class="st0" d="M14,8.8V7.2l-1.9-0.6l-0.4-1.1l0.9-1.8l-1.1-1.1L9.5,3.4L8.5,2.9L7.8,1H6.2L5.5,3L4.4,3.4L2.6,2.5L1.5,3.7
	l0.9,1.8L1.9,6.6L0,7.2v1.6l1.9,0.6l0.5,1.1l-0.9,1.8l1.1,1.1l1.8-0.9l1.1,0.4L6.2,15h1.6L8.4,13l1.1-0.4l1.8,0.9l1.1-1.1l-0.9-1.8
	l0.5-1.1L14,8.8L14,8.8z M7,11c-1.7,0-3-1.3-3-3s1.3-3,3-3s3,1.3,3,3S8.7,11,7,11z"/>
</svg>
