<?xml version="1.0" encoding="utf-8"?>
<!-- Generator: Adobe Illustrator 21.0.0, SVG Export Plug-In . SVG Version: 6.00 Build 0)  -->
<svg version="1.1" id="Layer_1" xmlns="http://www.w3.org/2000/svg" xmlns:xlink="http://www.w3.org/1999/xlink" x="0px" y="0px"
	 viewBox="0 0 14 16" style="enable-background:new 0 0 14 16;" xml:space="preserve">
<style type="text/css">
	.st0{fill:#FFFFFF;}
</style>
<rect x="2.8" y="4.8" class="st0" width="7.4" height="1.6"/>
<rect x="2.8" y="1.7" class="st0" width="2.7" height="4.6"/>
<rect x="9" y="1.7" class="st0" width="1.3" height="4.6"/>
<rect x="2.5" y="9.7" class="st0" width="1.3" height="4.9"/>
<rect x="10.1" y="9.4" class="st0" width="1.3" height="4.9"/>
<rect x="2.5" y="9.4" class="st0" width="8.9" height="1.3"/>
<path class="st0" d="M13,3.7V14H1V2h10.3l-1-1H1C0.5,1,0,1.5,0,2v12c0,0.5,0.5,1,1,1h12c0.5,0,1-0.5,1-1V4.7L13,3.7z"/>
<rect x="11.3" y="0.6" transform="matrix(0.7071 -0.7071 0.7071 0.7071 1.1954 9.292)" class="st0" width="1" height="5.2"/>
</svg>
